<svg enable-background="new 0 0 24 24" height="27" viewBox="0 0 24 24" width="27" fill="black" xmlns="http://www.w3.org/2000/svg"><path d="m14.109 3.246c-.586.586-.586 1.536 0 2.121l1.237 1.237c.098.098.098.256 0 .354s-.256.098-.354 0l-1.945-1.945c-.586-.586-1.536-.586-2.121 0s-.586 1.536 0 2.121l1.945 1.945c.098.098.098.256 0 .354s-.256.098-.354 0l-2.651-2.652c-.586-.586-1.536-.586-2.121 0s-.586 1.536 0 2.121l2.652 2.652c.098.098.098.256 0 .354s-.256.098-.354 0l-7.248-7.248c-.586-.586-1.536-.586-2.121 0s-.586 1.536 0 2.121l8.268 8.268-3.67.88-.002.002c-.255.057-.502.191-.707.396-.587.587-.587 1.534 0 2.121.205.205.46.346.728.403l-.004-.001 8.738 2.22c1.367.347 2.816-.051 3.814-1.048l4.755-4.755c1.562-1.562 1.562-4.095 0-5.657l-6.364-6.364c-.586-.586-1.535-.586-2.121 0z"/></svg>