<svg enable-background="new 0 0 24 24" height="512" viewBox="0 0 24 24" width="512" xmlns="http://www.w3.org/2000/svg"><path d="m19 6c-.828 0-1.5.672-1.5 1.5v.25c0 .138-.112.25-.25.25s-.25-.112-.25-.25v-1.25c0-.828-.672-1.5-1.5-1.5s-1.5.672-1.5 1.5v1.25c0 .138-.112.25-.25.25s-.25-.112-.25-.25v-2.25c0-.828-.672-1.5-1.5-1.5s-1.5.672-1.5 1.5v2.25c0 .138-.112.25-.25.25s-.25-.112-.25-.25v-1.75c0-.828-.672-1.5-1.5-1.5s-1.5.672-1.5 1.5v2 2.25c0 .138-.112.25-.25.25s-.25-.112-.25-.25v-2.25h-.494c-1.645 0-3.007 1.328-3.006 2.973.005 5.281 3.849 9.027 6.213 9.027h7.287c2.209 0 4-1.791 4-4v-8.5c0-.828-.672-1.5-1.5-1.5z"/></svg>